<svg xmlns="http://www.w3.org/2000/svg" viewBox="0 0 64 64" role="img" aria-label="Calma Society">
  <title>Calma Society — favicon</title>
  <defs>
    <linearGradient id="oro" x1="0" y1="0" x2="0" y2="1">
      <stop offset="0" stop-color="#D9C293" />
      <stop offset="1" stop-color="#A8895C" />
    </linearGradient>
  </defs>
  <rect width="64" height="64" rx="14" fill="#73402d" />
  <g stroke="#f4ecdc" stroke-width="1.1" stroke-linecap="round"><line x1="43" y1="26" x2="48.5" y2="26"/><line x1="41.53" y1="20.5" x2="47.16" y2="17.25"/><line x1="37.5" y1="16.47" x2="40" y2="12.14"/><line x1="32" y1="15" x2="32" y2="8"/><line x1="26.5" y1="16.47" x2="23.75" y2="11.71"/><line x1="22.47" y1="20.5" x2="17.28" y2="17.5"/><line x1="21" y1="26" x2="15.5" y2="26"/><line x1="22.47" y1="31.5" x2="18.58" y2="33.75"/><line x1="26.5" y1="35.53" x2="24.5" y2="38.99"/><line x1="37.5" y1="35.53" x2="39.75" y2="39.42"/><line x1="41.53" y1="31.5" x2="46.72" y2="34.5"/></g>
  <circle cx="32" cy="26" r="9.5" fill="url(#oro)" />
  <path d="M12 45 Q22 41 32 45 Q42 41 52 45" fill="none" stroke="#e6a985" stroke-width="2.8" stroke-linecap="round" />
  <path d="M12 50 Q22 46 32 50 Q42 46 52 50" fill="none" stroke="#c07c5a" stroke-width="2.8" stroke-linecap="round" />
</svg>
